<?xml version="1.0" encoding="UTF-8"?>
<svg width="391px" height="81px" viewBox="0 0 391 81" version="1.1" xmlns="http://www.w3.org/2000/svg" xmlns:xlink="http://www.w3.org/1999/xlink">
    <!-- Generator: Sketch 49.3 (51167) - http://www.bohemiancoding.com/sketch -->
    <title>logo</title>
    <desc>Created with Sketch.</desc>
    <defs>
        <polygon id="path-1" points="0.068779868 0.195492857 45.563501 0.195492857 45.563501 66.2142857 0.068779868 66.2142857"></polygon>
        <polygon id="path-3" points="0.0503267327 0.0773357143 46.0773498 0.0773357143 46.0773498 65.5714286 0.0503267327 65.5714286"></polygon>
        <polygon id="path-5" points="0 81 390.951609 81 390.951609 0.638357143 0 0.638357143"></polygon>
    </defs>
    <g id="Page-1" stroke="none" stroke-width="1" fill="none" fill-rule="evenodd">
        <g id="1366x768" transform="translate(-488.000000, -297.000000)">
            <g id="Group" transform="translate(488.000000, 297.000000)">
                <g id="logo">
                    <polygon id="Fill-1" fill="#231F20" points="39.4770015 1 30.9325764 33.1093342 30.0674236 33.1093342 21.5236398 1 0 1 0 65 17.0888503 65 17.0888503 32.8913127 17.954003 32.8913127 26.7145561 65 34.2854439 65 43.0466383 32.8913127 43.911791 32.8913127 43.911791 65 61 65 61 1"></polygon>
                    <polygon id="Fill-2" fill="#231F20" points="70 1 70 65 104 65 104 56.0863474 87.9805766 56.0863474 87.9805766 37.2937954 101.166505 37.2937954 101.166505 28.3801427 87.9805766 28.3801427 87.9805766 9.91365263 104 9.91365263 104 1"></polygon>
                    <g id="Group-19">
                        <g id="Group-5" transform="translate(110.331683, 14.785714)">
                            <mask id="mask-2" fill="white">
                                <use xlink:href="#path-1"></use>
                            </mask>
                            <g id="Clip-4"></g>
                            <path d="M45.563501,26.5076357 C45.563501,26.5076357 45.5518871,26.5076357 45.5518871,23.7214929 C45.5518871,10.2780643 36.5208195,0.195492857 23.0280934,0.195492857 C9.53601254,0.195492857 1.04821551,10.2780643 0.613340924,23.7214929 L0.068779868,33.5494929 L0.613340924,42.68835 C1.04821551,56.1324214 8.1210571,66.21435 20.5253063,66.21435 C27.5981479,66.21435 31.5152452,57.6495643 34.3445109,52.7709214 L35.2149053,52.7709214 L37.0647353,65.3471357 L45.5518871,65.3471357 L45.5518871,33.9924214 L22.8106561,33.9924214 L22.3757815,42.8497071 L28.0336677,42.8497071 L28.1427089,46.15785 C28.251105,50.92785 25.9657551,52.8795643 23.0280934,52.8795643 C20.0904317,52.8795643 18.1315604,50.92785 18.2406017,46.15785 L18.7845175,33.5494929 L18.3489977,20.6859214 C18.2406017,15.9152786 20.1988277,13.9642071 23.0280934,13.9642071 C25.8573591,13.9642071 27.5981479,15.9152786 27.5981479,20.6859214 L27.5981479,26.5076357 L45.563501,26.5076357 Z" id="Fill-3" fill="#231F20" mask="url(#mask-2)"></path>
                        </g>
                        <g id="Group-8" transform="translate(163.884488, 15.428571)">
                            <mask id="mask-4" fill="white">
                                <use xlink:href="#path-3"></use>
                            </mask>
                            <g id="Clip-7"></g>
                            <path d="M27.5790495,44.7559071 C27.6880908,49.52655 25.8382607,51.4776214 23.008995,51.4776214 C20.1797294,51.4776214 18.3305446,49.52655 18.4389406,44.7559071 L18.7654191,32.9061214 L18.4389406,20.5677643 C18.3305446,15.7977643 20.1797294,13.84605 23.008995,13.84605 C25.8382607,13.84605 27.6880908,15.7977643 27.5790495,20.5677643 L27.252571,32.9061214 L27.5790495,44.7559071 Z M23.008995,0.0773357143 C9.51626898,0.0773357143 1.02911716,10.16055 0.594242574,23.6033357 L0.0503267327,32.9061214 L0.594242574,42.0456214 C1.02911716,55.48905 9.51626898,65.5716214 23.008995,65.5716214 C36.5017211,65.5716214 45.097269,55.48905 45.5327888,42.0456214 L46.0773498,32.9061214 L45.5327888,23.6033357 C45.097269,10.16055 36.5017211,0.0773357143 23.008995,0.0773357143 Z" id="Fill-6" fill="#231F20" mask="url(#mask-4)"></path>
                        </g>
                        <path d="M244.007615,49.4731286 C244.007615,55.6529143 241.831306,55.6529143 238.458125,55.6529143 L235.411422,55.6529143 L235.411422,37.8567 L238.458125,37.8567 C241.831306,37.8567 244.007615,37.8567 244.007615,44.0364857 L243.898574,46.8084857 L244.007615,49.4731286 Z M235.411422,9.49512857 L238.458125,9.49512857 C241.831306,9.49512857 244.007615,9.49512857 244.007615,13.5104143 L243.898574,16.2200571 L244.007615,18.9297 C244.007615,23.8816286 241.831306,23.7627 238.458125,23.7627 L235.411422,23.7627 L235.411422,9.49512857 Z M262.287833,50.5576286 L262.50527,46.8084857 C261.852313,32.3898429 249.448064,32.1108429 244.007615,31.0263429 L244.007615,30.1591286 C249.448064,28.7499857 261.308397,28.9042714 262.178791,16.2200571 L261.961354,14.3146286 C261.200001,3.79877143 254.344597,0.638485714 243.789532,0.638485714 L217.457683,0.638485714 L217.457683,64.2337714 L244.116011,64.2337714 C254.67043,64.2337714 261.852313,61.0734857 262.287833,50.5576286 Z" id="Fill-9" fill="#231F20"></path>
                        <path d="M289.069913,23.8448571 L292.406963,23.8448571 L294.535525,38.4049286 L286.930382,38.4049286 L289.069913,23.8448571 Z M284.842468,52.6069286 L296.618278,52.6069286 L298.355841,64.3152857 L314.785583,64.3152857 L301.728377,0.72 L279.640103,0.72 L266.582251,64.3152857 L283.121681,64.3152857 L284.842468,52.6069286 Z" id="Fill-11" fill="#231F20"></path>
                        <mask id="mask-6" fill="white">
                            <use xlink:href="#path-5"></use>
                        </mask>
                        <g id="Clip-14"></g>
                        <polygon id="Fill-13" fill="#231F20" mask="url(#mask-6)" points="372.99787 64.3152857 390.951609 64.3152857 390.951609 0.72 372.99787 0.72"></polygon>
                        <path d="M338.179965,9.49545 L341.226668,9.49545 C344.599849,9.49545 346.775513,9.49545 346.775513,13.5107357 L346.667117,16.2197357 L346.775513,18.9293786 C346.775513,23.8446643 344.599849,23.7630214 341.226668,23.7630214 L338.179965,23.7631058 L338.179965,9.49545 Z M338.179965,37.9386643 L341.226668,37.9386643 C344.599849,37.9386643 346.775513,38.4047357 346.775513,44.1178071 L346.775513,64.3150929 L365.164772,64.3150929 L365.164772,45.41895 C365.164772,35.87895 352.216607,32.5180929 346.775513,31.4335929 L346.775513,30.15945 C352.216607,28.7496643 364.07694,28.9045929 364.947334,16.2197357 L364.729252,14.31495 C363.968544,3.79845 357.11314,0.638164286 346.558075,0.638164286 L320.226226,0.638164286 L320.226226,64.3150929 L338.179965,64.3150929 L338.179965,37.9386643 Z" id="Fill-15" fill="#231F20" mask="url(#mask-6)"></path>
                        <polygon id="Fill-16" fill="#231F20" mask="url(#mask-6)" points="0 80.1327857 104.022776 80.1327857 104.022776 71.2761429 0 71.2761429"></polygon>
                        <polygon id="Fill-17" fill="#231F20" mask="url(#mask-6)" points="217.457295 80.1327857 390.951609 80.1327857 390.951609 71.2761429 217.457295 71.2761429"></polygon>
                        <polygon id="Fill-18" fill="#231F20" mask="url(#mask-6)" points="110.400721 9.49564286 209.961838 9.49564286 209.961838 0.638357143 110.400721 0.638357143"></polygon>
                    </g>
                </g>
            </g>
        </g>
    </g>
</svg>